<?xml version="1.0" encoding="UTF-8"?>
<svg version="1.1" xmlns="http://www.w3.org/2000/svg" width="250" height="250">
<path d="M0 0 C7.04740116 -0.10137004 14.09461452 -0.17145284 21.14257812 -0.21972656 C23.54043606 -0.23984936 25.93824488 -0.26715059 28.3359375 -0.30175781 C31.78137323 -0.3502449 35.22616052 -0.37296241 38.671875 -0.390625 C40.28144073 -0.42159271 40.28144073 -0.42159271 41.92352295 -0.45318604 C43.42462616 -0.45363922 43.42462616 -0.45363922 44.95605469 -0.45410156 C45.83541687 -0.46298401 46.71477905 -0.47186646 47.62078857 -0.48101807 C50.77220067 0.15611999 51.8695667 1.65692807 54 4 C55.11375 4.598125 56.2275 5.19625 57.375 5.8125 C60.92920218 7.73451492 63.14761925 10.17213776 65.640625 13.31640625 C66.99827576 14.99786451 68.44804722 16.49825746 70 18 C70.18175781 16.93458984 70.18175781 16.93458984 70.3671875 15.84765625 C70.53476563 14.92855469 70.70234375 14.00945312 70.875 13.0625 C71.03742188 12.14597656 71.19984375 11.22945312 71.3671875 10.28515625 C71.57601562 9.53105469 71.78484375 8.77695313 72 8 C72.66 7.67 73.32 7.34 74 7 C74.33 4.69 74.66 2.38 75 0 C85.89 0 96.78 0 108 0 C108 8 108 8 106.625 9.5625 C106.08875 10.036875 105.5525 10.51125 105 11 C104.25613932 13.30988315 103.57809297 15.64315944 103 18 C102.34 18 101.68 18 101 18 C100.814375 19.918125 100.814375 19.918125 100.625 21.875 C100.25 25.75 100.25 25.75 98 28 C97.27566653 29.97984481 96.62256028 31.98583438 96 34 C95.46151752 35.62605793 94.91973463 37.25102587 94.375 38.875 C94.11460937 39.65617187 93.85421875 40.43734375 93.5859375 41.2421875 C93.39257812 41.82226562 93.19921875 42.40234375 93 43 C92.34 43 91.68 43 91 43 C91 44.98 91 46.96 91 49 C90.34 49 89.68 49 89 49 C88.67 50.65 88.34 52.3 88 54 C94.6 54 101.2 54 108 54 C108 61.26 108 68.52 108 76 C96.12 76.495 96.12 76.495 84 77 C84.433125 79.8771875 84.433125 79.8771875 84.875 82.8125 C85.03742188 83.89144531 85.19984375 84.97039062 85.3671875 86.08203125 C85.85132338 89.17321793 85.85132338 89.17321793 88 92 C88.433125 93.4540625 88.433125 93.4540625 88.875 94.9375 C90.14745229 98.40139789 91.10068988 99.74234048 94 102 C97.49272252 102.69779382 97.49272252 102.69779382 101.25 102.75 C104.59125 102.87375 104.59125 102.87375 108 103 C108 111.91 108 120.82 108 130 C104.04857454 130.06883128 100.09867368 130.1285718 96.14697266 130.16479492 C94.14080626 130.18732251 92.13483474 130.2254357 90.12890625 130.26367188 C88.87207031 130.27333984 87.61523438 130.28300781 86.3203125 130.29296875 C84.57645264 130.31653442 84.57645264 130.31653442 82.79736328 130.34057617 C81.8742334 130.22818604 80.95110352 130.1157959 80 130 C79.34 129.01 78.68 128.02 78 127 C76.00934459 125.98152514 74.00751815 124.98482022 72 124 C65.36842105 119.73684211 65.36842105 119.73684211 64 117 C61.19517152 118.1427079 59.6790194 119.3209806 57.5 121.5 C55 124 55 124 52.75 125.0625 C52.1725 125.371875 51.595 125.68125 51 126 C50.36752326 128.02428647 50.36752326 128.02428647 50 130 C42.48867235 130.0758691 34.97744296 130.12852324 27.46582031 130.16479492 C24.90881661 130.1799107 22.35183894 130.20040366 19.79492188 130.22631836 C16.12623683 130.26257862 12.4578936 130.27969836 8.7890625 130.29296875 C7.64007477 130.30845261 6.49108704 130.32393646 5.30728149 130.33988953 C3.71585831 130.34022942 3.71585831 130.34022942 2.09228516 130.34057617 C0.68663803 130.35056892 0.68663803 130.35056892 -0.74740601 130.36076355 C-1.49076202 130.24171158 -2.23411804 130.12265961 -3 130 C-3.66 129.01 -4.32 128.02 -5 127 C-7.55183404 125.79549696 -7.55183404 125.79549696 -10 125 C-10 124.34 -10 123.68 -10 123 C-10.70125 122.773125 -11.4025 122.54625 -12.125 122.3125 C-18.52164556 119.39229224 -22.20109724 114.81802579 -25.8125 109 C-26.20630859 108.39671875 -26.60011719 107.7934375 -27.00585938 107.171875 C-29.13049241 103.81910932 -30.54242732 100.96062908 -31 97 C-31.66 97 -32.32 97 -33 97 C-33.04898438 96.38511719 -33.09796875 95.77023438 -33.1484375 95.13671875 C-33.22320312 94.32847656 -33.29796875 93.52023438 -33.375 92.6875 C-33.44460937 91.88699219 -33.51421875 91.08648437 -33.5859375 90.26171875 C-33.89564426 87.72775559 -33.89564426 87.72775559 -36 85 C-36.2610788 81.97670744 -36.08815181 79.04123758 -36 76 C-40.62 76 -45.24 76 -50 76 C-50 68.74 -50 61.48 -50 54 C-45.38 54 -40.76 54 -36 54 C-36.04125 52.39125 -36.0825 50.7825 -36.125 49.125 C-36.1953125 46.3828125 -36.1953125 46.3828125 -36 44 C-35.34 43.34 -34.68 42.68 -34 42 C-33.61550947 40.09255184 -33.61550947 40.09255184 -33.5 38 C-33.22222222 34.22222222 -33.22222222 34.22222222 -31 32 C-30.71125 31.278125 -30.4225 30.55625 -30.125 29.8125 C-28.72598058 26.31495146 -26.90961979 23.24635365 -25 20 C-24.34 20 -23.68 20 -23 20 C-22.67 19.01 -22.34 18.02 -22 17 C-21.34 17 -20.68 17 -20 17 C-19.67 16.01 -19.34 15.02 -19 14 C-14.17490713 9.45493484 -8.63355789 6.03582025 -2.75 3.04296875 C-0.83171094 2.11289687 -0.83171094 2.11289687 0 0 Z M5 34 C3.60180488 36.6514482 3.60180488 36.6514482 3 39 C2.67 39.33 2.34 39.66 2 40 C1.76807135 41.51469448 1.58784762 43.03754562 1.4375 44.5625 C1.35371094 45.38878906 1.26992187 46.21507813 1.18359375 47.06640625 C1.12300781 47.70449219 1.06242187 48.34257813 1 49 C0.34 49 -0.32 49 -1 49 C-1 50.65 -1 52.3 -1 54 C14.84 54 30.68 54 47 54 C46.48013644 45.16128327 46.48013644 45.16128327 44.0625 37.5 C43.72347656 36.7059375 43.38445312 35.911875 43.03515625 35.09375 C41.94960524 32.7852142 41.94960524 32.7852142 40 30 C39.34 30 38.68 30 38 30 C38 29.34 38 28.68 38 28 C26.19014338 22.84660802 13.90461101 23.87766441 5 34 Z M-1 76 C-0.67 78.64 -0.34 81.28 0 84 C0.66 84 1.32 84 2 84 C1.87625 85.155 1.7525 86.31 1.625 87.5 C1.59084781 92.28130693 3.59137591 94.88771854 6.4921875 98.53125 C7.88795345 100.23258903 7.88795345 100.23258903 10 100 C10 100.66 10 101.32 10 102 C15.90708563 105.12810209 21.25872733 107.37699175 28 106 C36.5001399 102.40084166 40.82538924 95.71279311 44.984375 87.85546875 C46.44997946 84.0800638 46.44997946 84.0800638 47 76 C31.16 76 15.32 76 -1 76 Z " fill="#FFFFFF" transform="translate(96,60)"/>
<path d="M0 0 C2.61403343 2.22394216 5.14275964 4.52375041 7.66381836 6.85302734 C8.76790039 7.83529297 8.76790039 7.83529297 9.89428711 8.83740234 C27.21094566 25.01344267 39.30820549 50.57718848 40.88500977 74.16137695 C41.98391011 107.45805734 34.35708755 135.01445649 11.66381836 159.85302734 C11.00768555 160.59166016 10.35155273 161.33029297 9.67553711 162.09130859 C-3.55024884 176.22335825 -21.8975892 185.7019285 -40.33618164 190.85302734 C-41.3996582 191.17271484 -42.46313477 191.49240234 -43.55883789 191.82177734 C-73.59658611 199.41026111 -105.26374943 192.8773454 -131.46899414 177.34521484 C-137.64647658 173.49699761 -143.00470247 168.77893064 -148.33618164 163.85302734 C-149.07223633 163.19818359 -149.80829102 162.54333984 -150.56665039 161.86865234 C-167.88330894 145.69261202 -179.98056877 120.1288662 -181.55737305 96.54467773 C-182.65627339 63.24799734 -175.02945083 35.6915982 -152.33618164 10.85302734 C-151.68004883 10.11439453 -151.02391602 9.37576172 -150.34790039 8.61474609 C-137.12211444 -5.51730356 -118.77477408 -14.99587382 -100.33618164 -20.14697266 C-99.27270508 -20.46666016 -98.20922852 -20.78634766 -97.11352539 -21.11572266 C-64.37769749 -29.38582655 -26.20423978 -21.41445756 0 0 Z M-144.33618164 11.85302734 C-145.00133789 12.43568359 -145.66649414 13.01833984 -146.35180664 13.61865234 C-162.43620268 28.50047672 -174.17449589 52.88630419 -175.51318359 74.74291992 C-176.15298169 106.11341875 -169.60181441 130.830039 -148.33618164 154.85302734 C-147.72387695 155.54912109 -147.11157227 156.24521484 -146.48071289 156.96240234 C-129.36908174 175.20507947 -102.67940242 187.33620611 -77.76977539 188.18896484 C-46.06121257 188.59822365 -19.95126837 180.3805926 3.66381836 158.85302734 C4.32897461 158.27037109 4.99413086 157.68771484 5.67944336 157.08740234 C21.7638394 142.20557797 33.5021326 117.8197505 34.84082031 95.96313477 C35.48061841 64.59263593 28.92945112 39.87601569 7.66381836 15.85302734 C7.05151367 15.15693359 6.43920898 14.46083984 5.80834961 13.74365234 C-11.30328154 -4.49902479 -37.99296086 -16.63015142 -62.90258789 -17.48291016 C-94.61115071 -17.89216896 -120.72109491 -9.67453791 -144.33618164 11.85302734 Z " fill="#FFFFFF" transform="translate(198.336181640625,40.14697265625)"/>
</svg>
